<mxfile host="app.diagrams.net" modified="2024-01-29T07:55:50.808Z" agent="Mozilla/5.0 (Windows NT 10.0; Win64; x64) AppleWebKit/537.36 (KHTML, like Gecko) Chrome/121.0.0.0 Safari/537.36" etag="Z35UlRwLCA7WG0g-fiQq" version="23.0.2" type="device">
  <diagram id="C5RBs43oDa-KdzZeNtuy" name="Page-1">
    <mxGraphModel dx="794" dy="724" grid="1" gridSize="10" guides="1" tooltips="1" connect="1" arrows="1" fold="1" page="1" pageScale="1" pageWidth="827" pageHeight="1169" math="0" shadow="0">
      <root>
        <mxCell id="WIyWlLk6GJQsqaUBKTNV-0" />
        <mxCell id="WIyWlLk6GJQsqaUBKTNV-1" parent="WIyWlLk6GJQsqaUBKTNV-0" />
        <mxCell id="TWFyLxAYHI6ipHeRHt0a-1" value="시작" style="ellipse;whiteSpace=wrap;html=1;" vertex="1" parent="WIyWlLk6GJQsqaUBKTNV-1">
          <mxGeometry x="370" y="40" width="130" height="30" as="geometry" />
        </mxCell>
        <mxCell id="TWFyLxAYHI6ipHeRHt0a-2" value="종료" style="ellipse;whiteSpace=wrap;html=1;" vertex="1" parent="WIyWlLk6GJQsqaUBKTNV-1">
          <mxGeometry x="370" y="420" width="130" height="30" as="geometry" />
        </mxCell>
        <mxCell id="TWFyLxAYHI6ipHeRHt0a-3" value="변수 no 를 만들고,1을 기억.&lt;br&gt;합을 기억할 변수&amp;nbsp; s를 만들고 0을 기억" style="shape=hexagon;perimeter=hexagonPerimeter2;whiteSpace=wrap;html=1;fixedSize=1;" vertex="1" parent="WIyWlLk6GJQsqaUBKTNV-1">
          <mxGeometry x="300" y="110" width="270" height="50" as="geometry" />
        </mxCell>
        <mxCell id="TWFyLxAYHI6ipHeRHt0a-4" value="" style="endArrow=classic;html=1;rounded=0;exitX=0.5;exitY=1;exitDx=0;exitDy=0;entryX=0.5;entryY=0;entryDx=0;entryDy=0;" edge="1" parent="WIyWlLk6GJQsqaUBKTNV-1" source="TWFyLxAYHI6ipHeRHt0a-1" target="TWFyLxAYHI6ipHeRHt0a-3">
          <mxGeometry width="50" height="50" relative="1" as="geometry">
            <mxPoint x="380" y="400" as="sourcePoint" />
            <mxPoint x="435" y="120" as="targetPoint" />
          </mxGeometry>
        </mxCell>
        <mxCell id="TWFyLxAYHI6ipHeRHt0a-5" value="no가 10보다 크니?" style="rhombus;whiteSpace=wrap;html=1;" vertex="1" parent="WIyWlLk6GJQsqaUBKTNV-1">
          <mxGeometry x="330" y="220" width="210" height="50" as="geometry" />
        </mxCell>
        <mxCell id="TWFyLxAYHI6ipHeRHt0a-6" value="" style="endArrow=classic;html=1;rounded=0;exitX=0.5;exitY=1;exitDx=0;exitDy=0;entryX=0.5;entryY=0;entryDx=0;entryDy=0;" edge="1" parent="WIyWlLk6GJQsqaUBKTNV-1" source="TWFyLxAYHI6ipHeRHt0a-3">
          <mxGeometry width="50" height="50" relative="1" as="geometry">
            <mxPoint x="434.5" y="180" as="sourcePoint" />
            <mxPoint x="434.5" y="220" as="targetPoint" />
          </mxGeometry>
        </mxCell>
        <mxCell id="TWFyLxAYHI6ipHeRHt0a-7" value="" style="endArrow=classic;html=1;rounded=0;exitX=0.5;exitY=1;exitDx=0;exitDy=0;entryX=0.5;entryY=0;entryDx=0;entryDy=0;" edge="1" parent="WIyWlLk6GJQsqaUBKTNV-1">
          <mxGeometry width="50" height="50" relative="1" as="geometry">
            <mxPoint x="435" y="270" as="sourcePoint" />
            <mxPoint x="434.5" y="330" as="targetPoint" />
          </mxGeometry>
        </mxCell>
        <mxCell id="TWFyLxAYHI6ipHeRHt0a-8" value="변수 s 합으로 출력" style="shape=parallelogram;perimeter=parallelogramPerimeter;whiteSpace=wrap;html=1;fixedSize=1;" vertex="1" parent="WIyWlLk6GJQsqaUBKTNV-1">
          <mxGeometry x="322.5" y="330" width="225" height="20" as="geometry" />
        </mxCell>
        <mxCell id="TWFyLxAYHI6ipHeRHt0a-9" value="" style="endArrow=classic;html=1;rounded=0;exitX=0.5;exitY=1;exitDx=0;exitDy=0;entryX=0.5;entryY=0;entryDx=0;entryDy=0;" edge="1" parent="WIyWlLk6GJQsqaUBKTNV-1" source="TWFyLxAYHI6ipHeRHt0a-8">
          <mxGeometry width="50" height="50" relative="1" as="geometry">
            <mxPoint x="435" y="360" as="sourcePoint" />
            <mxPoint x="434.5" y="420" as="targetPoint" />
            <Array as="points" />
          </mxGeometry>
        </mxCell>
        <mxCell id="TWFyLxAYHI6ipHeRHt0a-10" value="s에 no를 더해준다" style="rounded=0;whiteSpace=wrap;html=1;" vertex="1" parent="WIyWlLk6GJQsqaUBKTNV-1">
          <mxGeometry x="620" y="230" width="120" height="40" as="geometry" />
        </mxCell>
        <mxCell id="TWFyLxAYHI6ipHeRHt0a-11" value="" style="endArrow=classic;html=1;rounded=0;exitX=1;exitY=0.5;exitDx=0;exitDy=0;entryX=0;entryY=0.5;entryDx=0;entryDy=0;" edge="1" parent="WIyWlLk6GJQsqaUBKTNV-1" source="TWFyLxAYHI6ipHeRHt0a-5" target="TWFyLxAYHI6ipHeRHt0a-10">
          <mxGeometry width="50" height="50" relative="1" as="geometry">
            <mxPoint x="580.5" y="240" as="sourcePoint" />
            <mxPoint x="580" y="300" as="targetPoint" />
          </mxGeometry>
        </mxCell>
        <mxCell id="TWFyLxAYHI6ipHeRHt0a-12" value="no에 1을 더해준다" style="rounded=0;whiteSpace=wrap;html=1;" vertex="1" parent="WIyWlLk6GJQsqaUBKTNV-1">
          <mxGeometry x="620" y="170" width="120" height="30" as="geometry" />
        </mxCell>
        <mxCell id="TWFyLxAYHI6ipHeRHt0a-13" value="" style="endArrow=classic;html=1;rounded=0;entryX=0.5;entryY=1;entryDx=0;entryDy=0;exitX=0.5;exitY=0;exitDx=0;exitDy=0;" edge="1" parent="WIyWlLk6GJQsqaUBKTNV-1" source="TWFyLxAYHI6ipHeRHt0a-10" target="TWFyLxAYHI6ipHeRHt0a-12">
          <mxGeometry width="50" height="50" relative="1" as="geometry">
            <mxPoint x="680" y="220" as="sourcePoint" />
            <mxPoint x="720" y="180" as="targetPoint" />
          </mxGeometry>
        </mxCell>
        <mxCell id="TWFyLxAYHI6ipHeRHt0a-14" value="" style="endArrow=classic;html=1;rounded=0;exitX=0;exitY=0.5;exitDx=0;exitDy=0;" edge="1" parent="WIyWlLk6GJQsqaUBKTNV-1" source="TWFyLxAYHI6ipHeRHt0a-12">
          <mxGeometry width="50" height="50" relative="1" as="geometry">
            <mxPoint x="547.5" y="210" as="sourcePoint" />
            <mxPoint x="440" y="190" as="targetPoint" />
          </mxGeometry>
        </mxCell>
        <mxCell id="TWFyLxAYHI6ipHeRHt0a-15" value="YES" style="text;html=1;strokeColor=none;fillColor=none;align=center;verticalAlign=middle;whiteSpace=wrap;rounded=0;" vertex="1" parent="WIyWlLk6GJQsqaUBKTNV-1">
          <mxGeometry x="370" y="280" width="60" height="30" as="geometry" />
        </mxCell>
        <mxCell id="TWFyLxAYHI6ipHeRHt0a-16" value="NO" style="text;html=1;strokeColor=none;fillColor=none;align=center;verticalAlign=middle;whiteSpace=wrap;rounded=0;" vertex="1" parent="WIyWlLk6GJQsqaUBKTNV-1">
          <mxGeometry x="547.5" y="250" width="60" height="30" as="geometry" />
        </mxCell>
        <mxCell id="TWFyLxAYHI6ipHeRHt0a-17" value="" style="endArrow=none;dashed=1;html=1;dashPattern=1 3;strokeWidth=2;rounded=0;" edge="1" parent="WIyWlLk6GJQsqaUBKTNV-1">
          <mxGeometry width="50" height="50" relative="1" as="geometry">
            <mxPoint x="320" y="300" as="sourcePoint" />
            <mxPoint x="750" y="300" as="targetPoint" />
          </mxGeometry>
        </mxCell>
        <mxCell id="TWFyLxAYHI6ipHeRHt0a-18" value="" style="endArrow=none;dashed=1;html=1;dashPattern=1 3;strokeWidth=2;rounded=0;" edge="1" parent="WIyWlLk6GJQsqaUBKTNV-1">
          <mxGeometry width="50" height="50" relative="1" as="geometry">
            <mxPoint x="322.5" y="170" as="sourcePoint" />
            <mxPoint x="752.5" y="170" as="targetPoint" />
          </mxGeometry>
        </mxCell>
        <mxCell id="TWFyLxAYHI6ipHeRHt0a-20" value="&lt;h1&gt;1~10까지 합 구하기&lt;/h1&gt;&lt;div&gt;시작&lt;/div&gt;&lt;div&gt;no=1&lt;/div&gt;&lt;div&gt;s=0&lt;/div&gt;&lt;div&gt;no&amp;gt;= 10 아니면&lt;/div&gt;&lt;div&gt;s+=no&lt;/div&gt;&lt;div&gt;no=no+1&lt;/div&gt;&lt;div&gt;no&amp;gt;=10인지 확인을 반복&lt;/div&gt;&lt;div&gt;&lt;br&gt;&lt;/div&gt;&lt;div&gt;&lt;span style=&quot;background-color: initial;&quot;&gt;no&amp;gt;=10 크면&lt;/span&gt;&lt;br&gt;&lt;/div&gt;&lt;div&gt;변수 s 출력한다&lt;/div&gt;&lt;div&gt;종료한다&lt;/div&gt;&lt;div&gt;&lt;br&gt;&lt;/div&gt;&lt;div&gt;&lt;br&gt;&lt;/div&gt;&lt;div&gt;&lt;br&gt;&lt;/div&gt;&lt;div&gt;&lt;br&gt;&lt;/div&gt;" style="text;html=1;strokeColor=#d6b656;fillColor=#fff2cc;spacing=5;spacingTop=-20;whiteSpace=wrap;overflow=hidden;rounded=0;" vertex="1" parent="WIyWlLk6GJQsqaUBKTNV-1">
          <mxGeometry x="30" y="75" width="240" height="265" as="geometry" />
        </mxCell>
      </root>
    </mxGraphModel>
  </diagram>
</mxfile>
